<?xml version="1.0" standalone="no"?>
<!DOCTYPE svg PUBLIC "-//W3C//DTD SVG 20010904//EN"
 "http://www.w3.org/TR/2001/REC-SVG-20010904/DTD/svg10.dtd">
<svg version="1.0" xmlns="http://www.w3.org/2000/svg"
 width="212.000000pt" height="300.000000pt" viewBox="0 0 212.000000 300.000000"
 preserveAspectRatio="xMidYMid meet">

<g transform="translate(0.000000,300.000000) scale(0.100000,-0.100000)"
fill="#000000" stroke="none">
<path d="M805 2501 c-37 -16 -60 -51 -60 -93 0 -33 6 -45 34 -70 28 -25 39
-29 70 -24 47 7 81 46 81 92 0 46 -14 70 -50 89 -32 17 -45 18 -75 6z"/>
<path d="M1048 2494 c-34 -18 -48 -43 -48 -86 0 -67 60 -110 125 -88 82 27 85
151 4 179 -40 14 -48 14 -81 -5z"/>
<path d="M1310 2498 c-14 -7 -33 -30 -43 -50 -16 -32 -16 -40 -4 -70 19 -46
43 -63 88 -63 115 0 127 169 14 190 -16 3 -41 0 -55 -7z"/>
<path d="M896 2249 c-36 -43 -35 -91 3 -130 22 -21 39 -29 66 -29 27 0 44 8
66 29 38 39 39 87 3 130 -21 26 -33 31 -69 31 -36 0 -48 -5 -69 -31z"/>
<path d="M1155 2248 c-23 -27 -26 -39 -22 -72 11 -83 100 -115 158 -57 38 39
39 87 3 130 -21 26 -33 31 -69 31 -36 0 -48 -5 -70 -32z"/>
<path d="M1054 2050 c-50 -20 -70 -96 -38 -145 36 -55 130 -51 159 6 45 86
-33 175 -121 139z"/>
<path d="M557 1849 c-122 -18 -225 -87 -276 -186 -42 -84 -55 -159 -55 -328 0
-178 12 -244 65 -352 61 -126 162 -182 340 -191 113 -5 199 6 312 39 l67 20 0
269 0 270 -165 0 c-136 0 -165 -3 -165 -14 0 -9 19 -18 51 -25 71 -16 87 -26
99 -69 5 -20 10 -119 10 -219 l0 -182 -57 -11 c-75 -16 -168 -8 -219 18 -43
22 -94 74 -118 120 -63 121 -73 446 -20 609 20 63 75 130 121 149 43 18 137
18 173 -1 35 -18 76 -70 85 -107 l7 -28 93 0 94 0 -8 28 c-31 108 -111 169
-251 191 -73 12 -100 12 -183 0z"/>
<path d="M1466 1850 c-168 -27 -272 -133 -311 -317 -19 -89 -19 -300 0 -398
35 -187 132 -297 294 -335 77 -18 263 -8 376 22 l90 23 3 273 2 272 -160 0
c-135 0 -160 -2 -160 -15 0 -8 12 -17 28 -21 124 -27 122 -23 122 -270 l0
-202 -51 -12 c-64 -16 -164 -8 -214 16 -131 62 -180 201 -172 489 5 185 18
248 66 320 42 63 92 86 176 83 96 -4 141 -39 169 -130 5 -15 18 -18 96 -18
103 0 106 3 66 80 -28 55 -90 105 -158 125 -66 19 -187 26 -262 15z"/>
</g>
</svg>
